<?xml version="1.0" encoding="UTF-8" standalone="no"?>
<!-- Created with Inkscape (http://www.inkscape.org/) -->

<svg
   width="120.08115mm"
   height="112.36084mm"
   viewBox="0 0 120.08115 112.36084"
   version="1.1"
   id="svg5"
   xmlns="http://www.w3.org/2000/svg"
   xmlns:svg="http://www.w3.org/2000/svg">
  <defs
     id="defs2" />
  <g
     id="layer1"
     transform="translate(-44.959425,-92.319584)">
    <g
       id="g2123"
       transform="matrix(1.7888868,0,0,1.7888868,-83.287574,-182.21191)">
      <path
         d="m 76.287417,216.27544 c -0.496703,0 -0.993431,-0.0394 -1.490134,-0.11854 -0.496715,-0.0677 -0.965202,-0.17489 -1.405469,-0.32173 -0.440267,-0.15796 -0.835379,-0.35005 -1.185333,-0.57573 -0.2032,-0.13547 -0.344312,-0.29925 -0.423334,-0.49107 -0.07902,-0.19182 -0.107245,-0.37809 -0.08467,-0.5588 0.03387,-0.19182 0.107245,-0.3556 0.220134,-0.49107 0.124177,-0.14684 0.276577,-0.23706 0.4572,-0.27093 0.180621,-0.0339 0.378177,0.0169 0.592667,0.1524 0.49671,0.29342 1.021643,0.508 1.574802,0.64347 0.553165,0.13546 1.134534,0.2032 1.744134,0.2032 0.891831,0 1.540933,-0.14685 1.947333,-0.44027 0.4064,-0.3048 0.6096,-0.69427 0.6096,-1.1684 0,-0.39502 -0.146764,-0.70565 -0.440267,-0.93133 -0.282231,-0.22569 -0.773297,-0.41196 -1.4732,-0.5588 l -1.862666,-0.38947 c -1.072449,-0.22569 -1.873959,-0.60405 -2.404536,-1.13453 -0.51929,-0.54187 -0.778934,-1.25307 -0.778934,-2.1336 0,-0.55325 0.112888,-1.05543 0.338667,-1.50707 0.225777,-0.45165 0.541867,-0.84111 0.948267,-1.1684 0.417687,-0.32729 0.908754,-0.57573 1.473202,-0.74507 0.575734,-0.18071 1.207903,-0.27093 1.896534,-0.27093 0.677333,0 1.3208,0.0847 1.9304,0.254 0.6096,0.16933 1.157102,0.41778 1.642533,0.74507 0.180631,0.12408 0.299164,0.27648 0.3556,0.4572 0.06773,0.18071 0.08467,0.36115 0.0508,0.54186 -0.03387,0.16934 -0.112898,0.31618 -0.237067,0.44027 -0.124169,0.12409 -0.282231,0.19764 -0.474133,0.22013 -0.180631,0.0225 -0.389467,-0.0339 -0.626533,-0.16933 -0.417698,-0.23707 -0.841031,-0.4064 -1.27,-0.508 -0.428969,-0.1016 -0.891831,-0.1524 -1.388534,-0.1524 -0.519297,0 -0.9652,0.0733 -1.337733,0.22013 -0.372533,0.14685 -0.6604,0.3556 -0.8636,0.62654 -0.191915,0.25955 -0.287869,0.57017 -0.287869,0.93133 0,0.4064 0.135466,0.73369 0.406402,0.98213 0.270934,0.23707 0.733769,0.42334 1.388534,0.5588 l 1.845733,0.38947 c 1.1176,0.23707 1.947333,0.6096 2.4892,1.1176 0.553164,0.508 0.829733,1.18533 0.829733,2.032 0,0.54187 -0.112897,1.03293 -0.338666,1.4732 -0.214498,0.44027 -0.530569,0.81835 -0.948267,1.13453 -0.4064,0.31618 -0.897467,0.5588 -1.4732,0.72814 -0.575733,0.16933 -1.224836,0.254 -1.947333,0.254 z m 10.074936,0 c -0.733769,0 -1.349031,-0.12409 -1.845733,-0.37254 -0.485431,-0.24844 -0.846667,-0.6096 -1.083733,-1.08373 -0.237067,-0.48551 -0.3556,-1.08373 -0.3556,-1.79493 v -3.6068 h -0.880534 c -0.270933,0 -0.479769,-0.0677 -0.626533,-0.2032 -0.146764,-0.14685 -0.220133,-0.34423 -0.220133,-0.59267 0,-0.25956 0.07337,-0.4572 0.220133,-0.59267 0.146764,-0.13546 0.3556,-0.2032 0.626533,-0.2032 h 0.880534 v -1.54093 c 0,-0.35005 0.0903,-0.61516 0.270933,-0.79587 0.191902,-0.18071 0.4572,-0.27093 0.795867,-0.27093 0.338666,0 0.598302,0.0902 0.778933,0.27093 0.180631,0.18071 0.270933,0.44582 0.270933,0.79587 v 1.54093 h 1.794934 c 0.270933,0 0.479769,0.0677 0.626533,0.2032 0.146764,0.13547 0.220133,0.33311 0.220133,0.59267 0,0.24844 -0.07337,0.44582 -0.220133,0.59267 -0.146764,0.13546 -0.3556,0.2032 -0.626533,0.2032 h -1.794934 v 3.48826 c 0,0.54187 0.118534,0.94827 0.3556,1.2192 0.237067,0.27094 0.620898,0.4064 1.151467,0.4064 0.191902,0 0.361236,-0.0169 0.508,-0.0508 0.146764,-0.0339 0.276569,-0.0564 0.389467,-0.0677 0.135466,-0.0114 0.248364,0.0339 0.338666,0.13547 0.0903,0.0902 0.135467,0.28231 0.135467,0.57573 0,0.22569 -0.0395,0.42889 -0.118533,0.6096 -0.06773,0.16933 -0.197565,0.28787 -0.389467,0.3556 -0.146764,0.0452 -0.338667,0.0847 -0.575733,0.11853 -0.237067,0.0452 -0.445903,0.0677 -0.626534,0.0677 z m 3.789495,-0.0339 c -0.349964,0 -0.620898,-0.0902 -0.8128,-0.27094 -0.180631,-0.19182 -0.270933,-0.46275 -0.270933,-0.8128 v -6.4008 c 0,-0.35004 0.0903,-0.61515 0.270933,-0.79586 0.180631,-0.18071 0.434631,-0.27094 0.762,-0.27094 0.327369,0 0.581369,0.0902 0.762,0.27094 0.180631,0.18071 0.270933,0.44582 0.270933,0.79586 v 1.0668 h -0.169333 c 0.158036,-0.67733 0.468498,-1.19089 0.931333,-1.54093 0.462836,-0.35004 1.078098,-0.5588 1.845734,-0.62653 0.237066,-0.0225 0.423333,0.0394 0.5588,0.18626 0.146764,0.13547 0.231431,0.35005 0.254,0.64347 0.02257,0.28231 -0.04517,0.51356 -0.2032,0.69427 -0.146765,0.16933 -0.372534,0.27093 -0.677334,0.3048 l -0.372533,0.0339 c -0.688631,0.0677 -1.207902,0.28231 -1.557867,0.64346 -0.349964,0.35005 -0.524933,0.84667 -0.524933,1.49014 v 3.5052 c 0,0.35004 -0.0903,0.62097 -0.270933,0.8128 -0.180631,0.18071 -0.445902,0.27093 -0.795867,0.27093 z m 6.597253,-0.0169 c -0.338666,0 -0.598302,-0.1016 -0.778933,-0.3048 -0.180631,-0.2032 -0.270933,-0.48552 -0.270933,-0.84667 v -6.21453 c 0,-0.37254 0.0903,-0.65485 0.270933,-0.84667 0.180631,-0.2032 0.440267,-0.3048 0.778933,-0.3048 0.338667,0 0.598303,0.1016 0.778934,0.3048 0.191902,0.19182 0.287866,0.47413 0.287866,0.84667 v 6.21453 c 0,0.36115 -0.0903,0.64347 -0.270933,0.84667 -0.180631,0.2032 -0.445902,0.3048 -0.795867,0.3048 z m 0,-10.09227 c -0.395102,0 -0.705564,-0.096 -0.931333,-0.28787 -0.214498,-0.2032 -0.321733,-0.47969 -0.321733,-0.82973 0,-0.36116 0.107235,-0.63791 0.321733,-0.82973 0.225769,-0.19183 0.536231,-0.28787 0.931333,-0.28787 0.4064,0 0.716836,0.096 0.931334,0.28787 0.214497,0.19182 0.321733,0.46857 0.321733,0.82973 0,0.35004 -0.107236,0.62653 -0.321733,0.82973 -0.214498,0.19182 -0.524934,0.28787 -0.931334,0.28787 z m 6.618899,10.1092 c -0.28205,0 -0.53049,-0.0733 -0.74507,-0.22013 -0.2032,-0.14685 -0.37253,-0.37254 -0.508,-0.67734 l -2.692399,-6.2484 c -0.1016,-0.24844 -0.141023,-0.47969 -0.118534,-0.69426 0.03387,-0.21458 0.135467,-0.38392 0.3048,-0.508 0.180711,-0.13547 0.423333,-0.2032 0.728133,-0.2032 0.25982,0 0.46858,0.0622 0.62653,0.18626 0.15823,0.11298 0.29925,0.33311 0.42334,0.6604 l 2.286,5.70654 h -0.508 l 2.35373,-5.72347 c 0.12436,-0.31618 0.26538,-0.53049 0.42333,-0.64347 0.16934,-0.12409 0.39529,-0.18626 0.67734,-0.18626 0.24844,0 0.44609,0.0677 0.59266,0.2032 0.14685,0.12408 0.23707,0.29342 0.27094,0.508 0.0339,0.2032 -0.006,0.42888 -0.11854,0.67733 l -2.7432,6.26533 c -0.12409,0.3048 -0.29342,0.53049 -0.508,0.67734 -0.2032,0.14684 -0.45137,0.22013 -0.74506,0.22013 z m 9.49245,0.0339 c -0.93689,0 -1.74413,-0.17489 -2.42146,-0.52494 -0.67734,-0.35004 -1.20227,-0.84666 -1.5748,-1.49013 -0.36116,-0.64347 -0.54187,-1.40547 -0.54187,-2.286 0,-0.85804 0.17515,-1.60867 0.52493,-2.25213 0.36142,-0.64347 0.85249,-1.14591 1.4732,-1.50707 0.63236,-0.37253 1.34911,-0.5588 2.15054,-0.5588 0.58711,0 1.11204,0.096 1.5748,0.28787 0.47413,0.19182 0.87497,0.46858 1.20226,0.82973 0.33867,0.36116 0.59267,0.80142 0.762,1.3208 0.18071,0.508 0.27094,1.08373 0.27094,1.7272 0,0.2032 -0.0733,0.36116 -0.22014,0.47413 -0.13546,0.1016 -0.33284,0.1524 -0.59266,0.1524 h -5.4356 v -1.2192 h 4.75826 l -0.27093,0.254 c 0,-0.51937 -0.0789,-0.95382 -0.23707,-1.30386 -0.14658,-0.35005 -0.36671,-0.61516 -0.6604,-0.79587 -0.28204,-0.19182 -0.63764,-0.28787 -1.0668,-0.28787 -0.47413,0 -0.88053,0.11298 -1.2192,0.33867 -0.32729,0.21458 -0.58129,0.52493 -0.762,0.93133 -0.16933,0.39503 -0.254,0.86916 -0.254,1.4224 v 0.11854 c 0,0.92578 0.21458,1.62004 0.64347,2.0828 0.44027,0.45164 1.08373,0.67733 1.9304,0.67733 0.29369,0 0.62098,-0.0339 0.98213,-0.1016 0.37254,-0.0791 0.72258,-0.20875 1.04987,-0.38947 0.23707,-0.13546 0.44609,-0.19182 0.62653,-0.16933 0.18071,0.0114 0.32174,0.0733 0.42334,0.18627 0.11297,0.11298 0.18071,0.254 0.2032,0.42333 0.0228,0.15796 -0.0111,0.32173 -0.1016,0.49107 -0.0788,0.16933 -0.22014,0.31618 -0.42334,0.44026 -0.39502,0.24845 -0.85222,0.43472 -1.3716,0.5588 -0.508,0.11298 -0.98213,0.16934 -1.4224,0.16934 z m 5.70654,-0.0339 c -0.28231,0 -0.51382,-0.0733 -0.69427,-0.22013 -0.18071,-0.15796 -0.28787,-0.35005 -0.32173,-0.57574 -0.0228,-0.23706 0.0564,-0.47413 0.23706,-0.7112 l 3.87774,-5.16466 v 0.93133 l -3.69147,-4.94453 c -0.18071,-0.24845 -0.25982,-0.48552 -0.23707,-0.7112 0.0225,-0.23707 0.12409,-0.42889 0.3048,-0.57574 0.18045,-0.15795 0.4064,-0.23706 0.67734,-0.23706 0.22569,0 0.42333,0.0564 0.59266,0.16933 0.18045,0.1016 0.36116,0.27649 0.54187,0.52493 l 3.048,4.19947 h -0.69427 l 3.03107,-4.19947 c 0.18045,-0.24844 0.3556,-0.42333 0.52493,-0.52493 0.18045,-0.11298 0.38947,-0.16933 0.62654,-0.16933 0.28204,0 0.51355,0.0733 0.69426,0.22013 0.18045,0.14684 0.28205,0.33867 0.3048,0.57573 0.0225,0.22569 -0.0622,0.46858 -0.254,0.72814 l -3.69146,4.94453 v -0.93133 l 3.8608,5.16466 c 0.18044,0.23707 0.25955,0.47414 0.23706,0.7112 -0.0228,0.22569 -0.12435,0.41778 -0.3048,0.57574 -0.18071,0.14684 -0.41777,0.22013 -0.7112,0.22013 -0.21457,0 -0.41222,-0.0564 -0.59266,-0.16933 -0.16934,-0.11298 -0.35005,-0.29343 -0.54187,-0.54187 l -3.21733,-4.40267 h 0.74506 l -3.2004,4.40267 c -0.18071,0.24844 -0.36142,0.42889 -0.54186,0.54187 -0.18071,0.11297 -0.38391,0.16933 -0.6096,0.16933 z m 12.05441,0 c -0.35004,0 -0.62097,-0.096 -0.8128,-0.28787 -0.18071,-0.2032 -0.27093,-0.47969 -0.27093,-0.82973 v -9.8552 c 0,-0.36116 0.0958,-0.63209 0.28787,-0.8128 0.19182,-0.19182 0.46275,-0.28787 0.8128,-0.28787 h 4.08093 c 1.30942,0 2.31987,0.32729 3.03107,0.98214 0.7112,0.65484 1.0668,1.56924 1.0668,2.7432 0,1.17395 -0.3556,2.09417 -1.0668,2.76013 -0.7112,0.65484 -1.72165,0.98213 -3.03107,0.98213 h -3.01413 v 3.48827 c 0,0.35004 -0.0905,0.62653 -0.27094,0.82973 -0.18071,0.19182 -0.45164,0.28787 -0.8128,0.28787 z m 1.08374,-6.31613 h 2.67546 c 0.76756,0 1.34885,-0.16934 1.74414,-0.508 0.39502,-0.35005 0.59266,-0.85805 0.59266,-1.524 0,-0.66596 -0.19764,-1.1684 -0.59266,-1.50707 -0.39529,-0.33867 -0.97658,-0.508 -1.74414,-0.508 h -2.67546 z"
         fill="#707271"
         id="path259"
         style="stroke-width:0.264583" />
      <g
         id="layer1-3"
         transform="matrix(0.22197762,0,0,0.22197762,81.69235,152.31721)">
        <g
           id="g4093"
           transform="matrix(1.1800959,0,0,1.1800959,-25.083684,-20.475304)">
          <path
             style="fill:#77bc4d;fill-opacity:1;stroke:none;stroke-width:2.8576;stroke-linecap:square;stroke-linejoin:round;stroke-miterlimit:0;stroke-dasharray:none;stroke-opacity:1;paint-order:normal"
             d="m 199.20727,26.537993 c 0,0 -13.42168,-2.855673 -19.27582,-3.426807 -5.85414,-0.571149 -22.98822,-1.713418 -34.98207,-1.285064 -11.99384,0.428355 -24.70162,1.285064 -37.2666,3.855176 -12.564992,2.570098 -21.560378,4.520197 -28.414006,7.257536 -6.853628,2.737325 -22.480622,9.057725 -30.37336,16.749102 -7.892723,7.69139 -16.031401,16.60312 -20.314917,26.925391 -4.283516,10.322271 -6.710848,20.317142 -7.139203,26.171283 -0.428354,5.85414 -0.142737,16.42015 1.142269,22.70265 1.285064,6.28249 3.569602,15.13508 6.282494,20.27531 2.712893,5.14022 7.995912,13.56447 9.566535,15.27788 1.57061,1.7134 2.395042,3.56424 2.712893,5.71136 0.313636,2.11867 0.857152,4.52242 -1.162115,7.09701 -2.019267,2.57455 -5.805403,7.87515 -6.158774,8.43044 -0.353371,0.5553 -2.019267,2.27167 -1.514443,4.54335 0.504809,2.27168 2.120226,3.83662 3.129859,3.8871 1.009634,0.0504 2.675544,0.50482 3.634684,-0.10102 0.959153,-0.60578 1.918307,-1.363 3.432765,-3.93757 1.514443,-2.57457 5.048153,-7.16841 6.209239,-7.92565 1.161072,-0.75722 2.776488,-1.46396 3.836616,-1.56492 1.060113,-0.10101 2.97842,0 3.685162,0.55529 0.706742,0.5553 3.836616,2.32216 5.149141,2.92794 1.312525,0.60579 6.512145,3.18036 9.339113,4.08903 2.826982,0.90867 11.704521,4.34143 25.594246,5.04817 13.889722,0.70674 30.894822,-3.93758 33.317952,-4.64432 2.42312,-0.70674 11.40888,-4.54336 20.09174,-10.80309 8.68285,-6.25973 19.08209,-19.58691 19.99077,-21.40426 0.90867,-1.81734 9.07141,-15.04356 12.51182,-29.38038 3.44041,-14.3368 3.7433,-15.64932 4.34907,-22.71677 0.60578,-7.067449 2.2212,-23.322572 2.42313,-26.755323 0.20193,-3.432765 1.00963,-18.072471 2.12023,-23.120637 1.1106,-5.048167 1.81735,-10.096349 3.23083,-14.437774 1.4135,-4.341439 4.85075,-10.00049 4.85075,-10.00049 z"
             id="path4083" />
          <g
             fill="none"
             stroke="#479838"
             stroke-linecap="round"
             stroke-linejoin="round"
             stroke-width="1.5"
             id="g4089"
             transform="matrix(5.6064224,0,0,-5.6064224,36.623202,178.56982)"
             style="stroke:#4a9537;stroke-opacity:1">
            <path
               d="m 7,14 a 3,3 0 1 0 1,5.83"
               id="path4085"
               style="stroke:#4a9537;stroke-opacity:1" />
            <path
               d="M 4.264,15.605 C 1.6662801,14.354381 1.2046766,10.849574 3.39,8.969 M 3.42,8.888 C 1.8567425,6.5487601 4.7503939,3.810299 7,5.5 M 7.238,5.565 C 5.9671201,2.8646878 11.999513,1.5155701 12,4.5 V 20 m -4,0 c 0,2.666666 4,2.666666 4,0 M 12,7 c 0,1.6568542 1.343146,3 3,3 m 5.61,-1.031 c 0.883539,0.7590111 1.391294,1.86621 1.39,3.031 0,0.703 -0.181,1.364 -0.5,1.938 M 20.58,8.888 C 22.143258,6.5487601 19.249606,3.810299 17,5.5 m -5,-1 c 4.87e-4,-2.9844299 6.03288,-1.6353122 4.762,1.065 M 14,22 c -1.104569,0 -2,-0.895431 -2,-2"
               id="path4087"
               style="stroke:#4a9537;stroke-opacity:1" />
          </g>
          <path
             fill="#ffd043"
             fill-rule="evenodd"
             d="m 131.16309,105.9897 a 3.0481677,3.0481677 0 0 0 5.68174,1.5363 l 21.33729,-36.578025 a 3.0481677,3.0481677 0 0 0 -2.63363,-4.584407 H 143.35574 V 45.026431 a 3.0481677,3.0481677 0 0 0 -5.68176,-1.536289 l -21.33711,36.578039 a 3.0481677,3.0481677 0 0 0 2.63362,4.584407 h 12.1926 z"
             clip-rule="evenodd"
             id="path4091"
             style="stroke-width:3.04816" />
        </g>
      </g>
    </g>
  </g>
</svg>
